<?xml version="1.0" standalone="no"?>
<!DOCTYPE svg PUBLIC "-//W3C//DTD SVG 20010904//EN"
 "http://www.w3.org/TR/2001/REC-SVG-20010904/DTD/svg10.dtd">
<svg version="1.0" xmlns="http://www.w3.org/2000/svg"
 width="512.000000pt" height="512.000000pt" viewBox="0 0 512.000000 512.000000"
 preserveAspectRatio="xMidYMid meet">
<metadata>
Created by potrace 1.11, written by Peter Selinger 2001-2013
</metadata>
<g transform="translate(0.000000,512.000000) scale(0.100000,-0.100000)"
fill="#000000" stroke="none">
<path d="M0 2560 l0 -2560 2560 0 2560 0 0 2560 0 2560 -2560 0 -2560 0 0
-2560z m3710 1500 c357 -44 491 -181 530 -542 12 -111 14 -468 3 -468 -5 0
-163 -25 -353 -55 -189 -30 -348 -55 -352 -55 -4 0 -8 131 -8 290 l0 290 -955
0 -955 0 0 -965 0 -965 955 0 955 0 0 325 c0 179 3 325 8 325 11 0 685 -139
700 -145 15 -6 17 -391 2 -535 -38 -361 -175 -499 -538 -540 -67 -8 -431 -10
-1192 -7 -1085 3 -1096 3 -1185 25 -229 56 -325 147 -387 367 l-23 80 -3 995
c-2 717 0 1020 8 1085 22 170 84 307 169 374 76 60 219 107 381 124 88 9 2161
6 2240 -3z"/>
</g>
</svg>
